<svg width="37" height="34" viewBox="0 0 37 34" fill="none" xmlns="http://www.w3.org/2000/svg">
<path d="M24.499 1.67927e-07C26.8219 2.00439e-07 28.9684 1.24715 30.1299 3.27165L36.1289 13.7283C37.2904 15.7529 37.2904 18.2471 36.1289 20.2717L30.1299 30.7283C28.9684 32.7529 26.8219 34 24.499 34H12.501C10.1781 34 8.03158 32.7529 6.87012 30.7283L0.871096 20.2717C-0.290365 18.2471 -0.290366 15.7529 0.871096 13.7283L6.87012 3.27165C8.03158 1.24715 10.1781 -3.25121e-08 12.501 0L24.499 1.67927e-07Z" fill="url(#paint0_linear_6078_11734)"/>
<path d="M24.499 3C25.7408 3 26.8979 3.6667 27.5277 4.76453L33.5267 15.2212C34.1578 16.3212 34.1578 17.6788 33.5267 18.7788L27.5277 29.2355C26.8979 30.3333 25.7408 31 24.499 31H12.501C11.2592 31 10.1021 30.3333 9.4723 29.2355L3.47327 18.7788C2.84224 17.6788 2.84224 16.3212 3.47327 15.2212L9.4723 4.76453C10.1021 3.6667 11.2592 3 12.501 3L24.499 3Z" stroke="url(#paint1_linear_6078_11734)" stroke-width="6"/>
<defs>
<linearGradient id="paint0_linear_6078_11734" x1="0" y1="17" x2="37" y2="17" gradientUnits="userSpaceOnUse">
<stop stop-color="#E2871B"/>
<stop offset="0.5" stop-color="#F4AF29"/>
<stop offset="1" stop-color="#E2871B"/>
</linearGradient>
<linearGradient id="paint1_linear_6078_11734" x1="18.5" y1="0" x2="18.5" y2="34" gradientUnits="userSpaceOnUse">
<stop stop-color="#FDDF3F"/>
<stop offset="1" stop-color="#D86E0C"/>
</linearGradient>
</defs>
</svg>
